<?xml version="1.0" encoding="UTF-8"?>
<svg version="1.1" xmlns="http://www.w3.org/2000/svg" width="600" height="600">
<path d="M0 0 C1.10569336 0.20399414 2.21138672 0.40798828 3.35058594 0.61816406 C61.95528822 11.70030843 119.24554069 38.59733834 161 82 C163.54895668 84.56998768 166.11703497 87.11250783 168.7265625 89.62109375 C175.73439533 96.39408771 181.87890202 103.5417503 187.73583984 111.32568359 C188.90973969 112.88045477 190.10444126 114.41946015 191.30078125 115.95703125 C220.88514904 154.36941643 239.91092099 200.32222886 248 248 C248.22647217 249.25272705 248.22647217 249.25272705 248.45751953 250.53076172 C253.77146373 280.94119749 253.72141576 315.65915882 248 346 C247.79600586 347.10569336 247.59201172 348.21138672 247.38183594 349.35058594 C236.29969157 407.95528822 209.40266166 465.24554069 166 507 C163.43001232 509.54895668 160.88749217 512.11703497 158.37890625 514.7265625 C151.60591229 521.73439533 144.4582497 527.87890202 136.67431641 533.73583984 C135.11954523 534.90973969 133.58053985 536.10444126 132.04296875 537.30078125 C93.63058357 566.88514904 47.67777114 585.91092099 0 594 C-1.25272705 594.22647217 -1.25272705 594.22647217 -2.53076172 594.45751953 C-32.94119749 599.77146373 -67.65915882 599.72141576 -98 594 C-99.65854004 593.69400879 -99.65854004 593.69400879 -101.35058594 593.38183594 C-159.95528822 582.29969157 -217.24554069 555.40266166 -259 512 C-261.54895668 509.43001232 -264.11703497 506.88749217 -266.7265625 504.37890625 C-273.73439533 497.60591229 -279.87890202 490.4582497 -285.73583984 482.67431641 C-286.90973969 481.11954523 -288.10444126 479.58053985 -289.30078125 478.04296875 C-318.88514904 439.63058357 -337.91092099 393.67777114 -346 346 C-346.22647217 344.74727295 -346.22647217 344.74727295 -346.45751953 343.46923828 C-351.77146373 313.05880251 -351.72141576 278.34084118 -346 248 C-345.79600586 246.89430664 -345.59201172 245.78861328 -345.38183594 244.64941406 C-334.29969157 186.04471178 -307.40266166 128.75445931 -264 87 C-261.43001232 84.45104332 -258.88749217 81.88296503 -256.37890625 79.2734375 C-249.60591229 72.26560467 -242.4582497 66.12109798 -234.67431641 60.26416016 C-233.11954523 59.09026031 -231.58053985 57.89555874 -230.04296875 56.69921875 C-191.63058357 27.11485096 -145.67777114 8.08907901 -98 0 C-96.74727295 -0.22647217 -96.74727295 -0.22647217 -95.46923828 -0.45751953 C-65.05880251 -5.77146373 -30.34084118 -5.72141576 0 0 Z " fill="#F4F2EB" transform="translate(349,3)"/>
<path d="M0 0 C1.97862864 0.00138269 1.97862864 0.00138269 3.99722958 0.00279331 C5.09494502 0.00151167 5.09494502 0.00151167 6.21483654 0.00020415 C8.68545163 -0.00145283 11.15599994 0.00407424 13.62660885 0.00952244 C15.39028071 0.00980429 17.15395268 0.00964662 18.91762447 0.00907993 C23.72114126 0.00879188 28.5246333 0.0146899 33.32814431 0.02165389 C38.34233969 0.02788609 43.35653557 0.02849112 48.37073421 0.0296793 C57.87281044 0.03279301 67.37487522 0.04100693 76.87694639 0.05102879 C87.69175622 0.06218869 98.50656658 0.06770006 109.32138073 0.07272422 C131.57474117 0.08318952 153.82809128 0.10078973 176.08144283 0.12304783 C175.12613187 1.24418857 174.16988014 2.36452772 173.21323299 3.48452854 C172.41461582 4.42049083 172.41461582 4.42049083 171.59986496 5.37536144 C169.79887477 7.44828041 167.90017424 9.4150643 165.99941158 11.39648533 C163.09170207 14.55363217 160.71125002 17.61614425 158.50185299 21.29589939 C150.54291325 34.50042027 140.3420609 48.22854984 125.08144283 53.12304783 C95.26323842 59.75281312 61.27781409 55.32215969 31.08144283 53.12304783 C30.62596821 54.06464001 30.62596821 54.06464001 30.16129208 55.02525425 C29.08409128 57.11790277 27.98302188 58.50155556 26.35878658 60.18945408 C25.82511471 60.75148533 25.29144283 61.31351658 24.74159908 61.89257908 C24.17312252 62.48425877 23.60464596 63.07593845 23.01894283 63.68554783 C19.04565072 67.8853873 15.1902971 72.1002193 11.58144283 76.62304783 C7.02102357 82.31936488 2.0640962 87.59623848 -2.92246342 92.91601658 C-6.34967003 96.57318042 -9.65424431 100.32029162 -12.91855717 104.12304783 C-13.93509996 105.28614423 -14.95206942 106.44886778 -15.96933842 107.61132908 C-17.07767342 108.8858408 -18.18574434 110.16058221 -19.29355717 111.43554783 C-20.09901981 112.35303806 -20.09901981 112.35303806 -20.92075443 113.28906345 C-23.15897481 115.87822932 -24.82530467 117.84329032 -25.91855717 121.12304783 C-24.72023055 123.43500258 -23.47039743 125.51791138 -22.04355717 127.68554783 C-21.60302006 128.37245701 -21.16248295 129.05936619 -20.70859623 129.7670908 C-19.12441856 132.22740703 -17.52258282 134.67562675 -15.91855717 137.12304783 C-14.59822164 139.14516821 -13.27791048 141.1673045 -11.95761967 143.18945408 C-9.78943036 146.50696651 -7.61969984 149.82343834 -5.44468021 153.13647556 C-0.28130619 161.00575034 4.78806852 168.93073131 9.8114233 176.89013767 C12.98026722 181.88860626 16.20884468 186.84194364 19.50722408 191.75586033 C19.87874096 192.30972416 20.25025784 192.86358799 20.6330328 193.43423557 C22.44960267 196.13919549 24.27325348 198.83906654 26.10512447 201.53369236 C26.75473141 202.49646091 27.40433834 203.45922947 28.07363033 204.45117283 C28.65483639 205.30614353 29.23604244 206.16111423 29.8348608 207.04199314 C31.08144283 209.12304783 31.08144283 209.12304783 31.08144283 211.12304783 C61.77144283 211.12304783 92.46144283 211.12304783 124.08144283 211.12304783 C124.08144283 181.09304783 124.08144283 151.06304783 124.08144283 120.12304783 C141.57144283 120.12304783 159.06144283 120.12304783 177.08144283 120.12304783 C177.08144283 168.96304783 177.08144283 217.80304783 177.08144283 268.12304783 C134.01988983 268.56638121 134.01988983 268.56638121 115.97597408 268.6601572 C103.51632042 268.72543116 91.05748493 268.80216656 78.59853268 268.95288181 C69.52463288 269.06259585 60.45139669 269.13350503 51.37685204 269.15802127 C46.57245822 269.17235108 41.76996261 269.2059681 36.96617794 269.28607845 C32.4413322 269.36092351 27.91915997 269.38374305 23.39375401 269.36723232 C21.73603227 269.37025101 20.07821835 269.39203671 18.42103291 269.43430805 C5.92572005 269.73731986 5.92572005 269.73731986 1.39734554 265.77369213 C-0.6655305 262.97561523 -2.30124073 260.19537631 -3.91855717 257.12304783 C-5.10004668 255.36959095 -6.2991622 253.62773549 -7.52402592 251.90429783 C-8.71973695 250.14503581 -9.91370436 248.38458764 -11.10605717 246.62304783 C-12.41971343 244.68935501 -13.73351814 242.75576303 -15.04746342 240.82226658 C-15.69731205 239.86497654 -16.34716068 238.9076865 -17.0167017 237.92138767 C-19.84965969 233.7530482 -22.69585748 229.59382422 -25.54355717 225.43554783 C-26.07312016 224.66186863 -26.60268314 223.88818943 -27.1482935 223.09106541 C-28.7381925 220.76826351 -30.32833801 218.44563056 -31.91855717 216.12304783 C-39.39945441 205.19687917 -46.87021968 194.2639205 -54.32773685 183.3217783 C-59.98078542 175.02860169 -65.6469756 166.74447115 -71.31699467 158.46289158 C-72.9556791 156.06881358 -74.59349165 153.67414129 -76.23105717 151.27929783 C-83.11203622 141.21696463 -90.00722715 131.16455938 -96.91855717 121.12304783 C-95.56736872 118.22448528 -94.02157075 115.79961058 -92.04746342 113.28711033 C-91.19438602 112.19608006 -91.19438602 112.19608006 -90.32407475 111.08300877 C-89.41178104 109.9272031 -89.41178104 109.9272031 -88.48105717 108.74804783 C-87.8528809 107.94657322 -87.22470463 107.14509861 -86.57749271 106.31933689 C-84.69435728 103.91805852 -82.80673455 101.52036239 -80.91855717 99.12304783 C-79.92341951 97.85509013 -78.9285968 96.58688515 -77.93418217 95.31836033 C-75.70760343 92.47934361 -73.47716506 89.64339161 -71.24521732 86.8085947 C-68.96769511 83.91495956 -66.69331709 81.0188546 -64.41855717 78.12304783 C-63.50190487 76.95636987 -62.58523822 75.78970319 -61.66855717 74.62304783 C-61.21480717 74.04554783 -60.76105717 73.46804783 -60.29355717 72.87304783 C-47.91855717 57.12304783 -35.54355717 41.37304783 -23.16855717 25.62304783 C-22.48672367 24.75522678 -22.48672367 24.75522678 -21.79111576 23.869874 C-20.88267352 22.71371886 -19.97414614 21.55763062 -19.06552982 20.40161228 C-16.64729435 17.32468808 -14.23093456 14.2463123 -11.81699467 11.16601658 C-11.31103764 10.5208408 -10.8050806 9.87566502 -10.28379154 9.21093845 C-9.30799158 7.96656969 -8.33271105 6.7217934 -7.35801029 5.47656345 C-3.16652427 0.13350225 -3.16652427 0.13350225 0 0 Z " fill="#010101" transform="translate(356.9185571670532,186.87695217132568)"/>
<path d="M0 0 C19.8 0 39.6 0 60 0 C60.33 52.47 60.66 104.94 61 159 C64.3 154.71 67.6 150.42 71 146 C72.8074457 143.68354742 74.61877057 141.3701039 76.4375 139.0625 C77.36718941 137.88151192 78.29687686 136.70052229 79.2265625 135.51953125 C80.15101686 134.34633462 81.07549571 133.17315729 82 132 C88.63179286 123.58010452 95.23250181 115.13690651 101.80786133 106.67285156 C105.79368662 101.54440486 109.7982724 96.43127422 113.81640625 91.328125 C117.5625575 86.56625344 121.28300839 81.78465416 125 77 C131.40734761 68.75317676 137.85244648 60.53681889 144.31347656 52.33203125 C150.4999277 44.4741851 156.65593989 36.59342909 162.7902832 28.69482422 C166.92952221 23.3678135 171.08739863 18.05595634 175.2734375 12.765625 C175.67820312 12.25257813 176.08296875 11.73953125 176.5 11.2109375 C177.09275223 10.49658035 177.09275223 10.49658035 177.69747925 9.76779175 C179.06795413 8.03090107 179.06795413 8.03090107 179.94387817 5.96389771 C181.36081205 3.29440645 182.55637666 1.8117271 185 0 C190.80426059 -1.15991496 196.53491177 -0.93143266 202.4296875 -0.78125 C204.14744427 -0.76631826 205.86523524 -0.75493564 207.58303833 -0.74694824 C212.09174626 -0.71648631 216.59837329 -0.63797851 221.10626221 -0.54931641 C225.71118011 -0.46729419 230.31643626 -0.43090206 234.921875 -0.390625 C243.94882809 -0.30497532 252.97424063 -0.16854326 262 0 C260.66473436 2.73224236 259.28128603 5.10500321 257.41796875 7.51171875 C256.90468018 8.17848633 256.3913916 8.84525391 255.86254883 9.53222656 C255.30978271 10.2434668 254.7570166 10.95470703 254.1875 11.6875 C253.00771418 13.2173721 251.82802955 14.74732224 250.6484375 16.27734375 C249.74109863 17.45079346 249.74109863 17.45079346 248.81542969 18.64794922 C245.9672378 22.33803537 243.14078761 26.044652 240.3125 29.75 C235.75122069 35.71735235 231.17614046 41.67384355 226.59375 47.625 C223.55392372 51.57677416 220.52724909 55.5385882 217.5 59.5 C212.87616973 65.55067348 208.23970356 71.59129408 203.59375 77.625 C200.55392372 81.57677416 197.52724909 85.5385882 194.5 89.5 C189.87616973 95.55067348 185.23970356 101.59129408 180.59375 107.625 C177.55392372 111.57677416 174.52724909 115.5385882 171.5 119.5 C166.87616973 125.55067348 162.23970356 131.59129408 157.59375 137.625 C154.55392372 141.57677416 151.52724909 145.5385882 148.5 149.5 C143.87616973 155.55067348 139.23970356 161.59129408 134.59375 167.625 C131.55392372 171.57677416 128.52724909 175.5385882 125.5 179.5 C121.6744577 184.50604608 117.84384594 189.50799228 114 194.5 C107.98055884 202.31846639 101.991135 210.15983492 96 218 C89.21057959 226.88482347 82.41579917 235.76519588 75.59375 244.625 C72.55392372 248.57677416 69.52724909 252.5385882 66.5 256.5 C61.87616973 262.55067348 57.23970356 268.59129408 52.59375 274.625 C49.55392372 278.57677416 46.52724909 282.5385882 43.5 286.5 C38.87616973 292.55067348 34.23970356 298.59129408 29.59375 304.625 C27.11666732 307.84520749 24.64843277 311.07214073 22.18139648 314.30004883 C20.51883264 316.47535924 18.85513018 318.64979554 17.19140625 320.82421875 C15.15251763 323.48970164 13.11883293 326.15900703 11.08984375 328.83203125 C10.20577053 329.99221902 9.32165834 331.15237709 8.4375 332.3125 C7.67308594 333.31925781 6.90867187 334.32601563 6.12109375 335.36328125 C4 338 4 338 0 342 C0 229.14 0 116.28 0 0 Z " fill="#000000" transform="translate(97,129)"/>
<path d="M0 0 C4.2882359 4.01233837 7.61679406 8.39978855 11 13.1875 C12.15612683 14.80607757 13.31238037 16.42456464 14.46875 18.04296875 C15.34853516 19.27926025 15.34853516 19.27926025 16.24609375 20.54052734 C18.9793904 24.37338236 21.74033153 28.18611386 24.5 32 C25.57956384 33.4946929 26.65899044 34.98948493 27.73828125 36.484375 C29.94301203 39.53718117 32.14886583 42.58917179 34.35546875 45.640625 C39.65621811 52.97250262 44.94678705 60.31094636 50.1965332 67.67944336 C53.5674928 72.40635742 56.97022626 77.10990663 60.375 81.8125 C65.12169334 88.37116293 69.81251071 94.96642291 74.46899414 101.58935547 C78.2097827 106.9016084 82.00170583 112.17528746 85.8125 117.4375 C99 135.65955524 99 135.65955524 99 137 C89.03877445 137.39560585 79.07944255 137.69676664 69.11193466 137.88080692 C64.48193932 137.96919336 59.85735054 138.08878585 55.23046875 138.2824707 C22.78153873 139.60565375 22.78153873 139.60565375 16.06201172 133.45214844 C13.24118631 129.95416585 11.39950055 126.21799796 9.81005859 122.03158569 C8.75291889 119.38033316 7.23750886 117.30319451 5.4765625 115.0703125 C5.00065674 114.41063477 4.52475098 113.75095703 4.03442383 113.07128906 C3.33675903 112.10787598 3.33675903 112.10787598 2.625 111.125 C2.09737061 110.39506836 1.56974121 109.66513672 1.02612305 108.91308594 C-3.60268187 102.52205944 -8.28854819 96.17364609 -12.9777832 89.8269043 C-16.77163312 84.68563651 -20.52008199 79.51563856 -24.22094727 74.30712891 C-27.83009751 69.22791561 -31.47489528 64.17484698 -35.125 59.125 C-35.70644775 58.32054443 -36.28789551 57.51608887 -36.88696289 56.68725586 C-38.25768154 54.7912912 -39.628673 52.89552467 -41 51 C-39.3738426 47.60878518 -37.47416668 44.9626055 -35.0625 42.0625 C-34.25941406 41.09441406 -33.45632812 40.12632812 -32.62890625 39.12890625 C-29.46534067 35.35526701 -26.28166798 31.59862906 -23.09472656 27.84472656 C-16.45583629 20.01650396 -10.0014426 12.0422255 -3.62890625 3.99609375 C-2 2 -2 2 0 0 Z " fill="#010101" transform="translate(241,327)"/>
</svg>
